<svg xmlns="http://www.w3.org/2000/svg" viewBox="0 0 168 168" width="32" height="32">
  <path fill="#ffffff" d="M84 0a84 84 0 100 168 84 84 0 000-168zm38.7 120.5a6.1 6.1 0 01-8.4 2.1c-23-14-52-17-86.3-9.6a6.1 6.1 0 01-2.8-11.9c38-8.8 70.4-5.1 96.4 11.2a6.1 6.1 0 012.1 8.2zm11.7-23.7a7.6 7.6 0 01-10.5 2.6c-26.3-16-66.5-20.6-97.6-11.6a7.6 7.6 0 11-4.1-14.6c36.7-10.3 82.2-5.2 113.1 13.1a7.6 7.6 0 012.6 10.5zm1.3-24.4c-31.6-18.8-84.1-20.5-114-11.6a9.1 9.1 0 01-5-17.5c34.3-9.7 92.6-7.7 129.2 14.2a9.1 9.1 0 01-9.3 15z"/>
</svg>
